<svg xmlns="http://www.w3.org/2000/svg">
    <symbol id="camera" viewBox="0 0 512 512">
        <title>Camera</title>
        <path d="M152 304c0 57.438 46.562 104 104 104s104-46.562 104-104-46.562-104-104-104-104 46.562-104 104zm328-176h-112c-8-32-16-64-48-64h-128c-32 0-40 32-48 64h-112c-17.6 0-32 14.4-32 32v288c0 17.6 14.4 32 32 32h448c17.6 0 32-14.4 32-32v-288c0-17.6-14.4-32-32-32zm-224 318c-78.425 0-142-63.574-142-142 0-78.425 63.575-142 142-142 78.426 0 142 63.575 142 142 0 78.426-63.573 142-142 142zm224-222h-64v-32h64v32z"/>
    </symbol>
    <symbol id="pencil" viewBox="0 0 512 512">
        <title>Pencil</title>
        <path d="M432 0c44.182 0 80 35.817 80 80 0 18.01-5.955 34.629-16 48l-32 32-112-112 32-32c13.371-10.045 29.989-16 48-16zm-400 368l-32 144 144-32 296-296-112-112-296 296zm325.789-186.211l-224 224-27.578-27.578 224-224 27.578 27.578z"/>
    </symbol>
    <symbol id="eye" viewBox="0 0 512 512">
        <title>Eye</title>
        <path d="M256 96c-111.659 0-208.441 65.021-256 160 47.559 94.979 144.341 160 256 160 111.657 0 208.439-65.021 256-160-47.558-94.979-144.343-160-256-160zm126.225 84.852c30.081 19.187 55.571 44.887 74.718 75.148-19.146 30.261-44.638 55.961-74.719 75.148-37.797 24.109-81.445 36.852-126.224 36.852-44.78 0-88.428-12.743-126.225-36.852-30.08-19.187-55.57-44.887-74.717-75.148 19.146-30.262 44.637-55.962 74.717-75.148 1.959-1.25 3.938-2.461 5.929-3.65-4.979 13.664-7.704 28.411-7.704 43.798 0 70.691 57.308 128 128 128 70.692 0 128-57.309 128-128 0-15.387-2.725-30.134-7.704-43.799 1.99 1.189 3.969 2.401 5.929 3.651zm-126.225 24.148c0 26.51-21.49 48-48 48s-48-21.49-48-48 21.49-48 48-48 48 21.49 48 48z"/>
    </symbol>
    <symbol id="plus-in-circle" viewBox="0 0 26 26">
        <g>
            <circle class="st5" cx="13" cy="13" r="11"/>
            <path class="st5" d="M13 7v12M19 13H7"/>
        </g>
    </symbol>
    <symbol id="flag-pl" viewBox="0 0 512 512">
        <path style="fill:#FF4B55;" d="M0,385.379c0,21.177,17.167,38.345,38.345,38.345h435.31c21.177,0,38.345-17.167,38.345-38.345V256H0
            V385.379z"/>
        <path style="fill:#F5F5F5;" d="M473.655,88.276H38.345C17.167,88.276,0,105.443,0,126.621V256h512V126.621
            C512,105.443,494.833,88.276,473.655,88.276z"/>
    </symbol>
    <symbol id="flag-en" viewBox="0 0 512 512">
        <path style="fill:#41479B;" d="M473.655,88.276H38.345C17.167,88.276,0,105.443,0,126.621V385.38
            c0,21.177,17.167,38.345,38.345,38.345h435.31c21.177,0,38.345-17.167,38.345-38.345V126.621
            C512,105.443,494.833,88.276,473.655,88.276z"/>
        <path style="fill:#F5F5F5;" d="M511.469,120.282c-3.022-18.159-18.797-32.007-37.814-32.007h-9.977l-163.54,107.147V88.276h-88.276
            v107.147L48.322,88.276h-9.977c-19.017,0-34.792,13.847-37.814,32.007l139.778,91.58H0v88.276h140.309L0.531,391.717
            c3.022,18.159,18.797,32.007,37.814,32.007h9.977l163.54-107.147v107.147h88.276V316.577l163.54,107.147h9.977
            c19.017,0,34.792-13.847,37.814-32.007l-139.778-91.58H512v-88.276H371.691L511.469,120.282z"/>
        <g>
            <polygon style="fill:#FF4B55;" points="282.483,88.276 229.517,88.276 229.517,229.517 0,229.517 0,282.483 229.517,282.483 
                229.517,423.724 282.483,423.724 282.483,282.483 512,282.483 512,229.517 282.483,229.517     "/>
            <path style="fill:#FF4B55;" d="M24.793,421.252l186.583-121.114h-32.428L9.224,410.31
                C13.377,415.157,18.714,418.955,24.793,421.252z"/>
            <path style="fill:#FF4B55;" d="M346.388,300.138H313.96l180.716,117.305c5.057-3.321,9.277-7.807,12.287-13.075L346.388,300.138z"
                />
            <path style="fill:#FF4B55;" d="M4.049,109.475l157.73,102.387h32.428L15.475,95.842C10.676,99.414,6.749,104.084,4.049,109.475z"/>
            <path style="fill:#FF4B55;" d="M332.566,211.862l170.035-110.375c-4.199-4.831-9.578-8.607-15.699-10.86L300.138,211.862H332.566z"/>
    </symbol>
</svg>